<?xml version="1.0" encoding="UTF-8" standalone="no"?>
<!-- Created with Inkscape (http://www.inkscape.org/) -->
<svg xmlns:dc="http://purl.org/dc/elements/1.1/" xmlns:cc="http://creativecommons.org/ns#" xmlns:rdf="http://www.w3.org/1999/02/22-rdf-syntax-ns#" xmlns:svg="http://www.w3.org/2000/svg" xmlns="http://www.w3.org/2000/svg" xmlns:sodipodi="http://sodipodi.sourceforge.net/DTD/sodipodi-0.dtd" xmlns:inkscape="http://www.inkscape.org/namespaces/inkscape" width="239" height="50" id="svg6050" version="1.1" inkscape:version="0.47 r22583" sodipodi:docname="Nouveau document 10">
  <defs id="defs6052">
    <inkscape:perspective sodipodi:type="inkscape:persp3d" inkscape:vp_x="0 : 526.18109 : 1" inkscape:vp_y="0 : 1000 : 0" inkscape:vp_z="744.09448 : 526.18109 : 1" inkscape:persp3d-origin="372.04724 : 350.78739 : 1" id="perspective6058"/>
    <inkscape:perspective id="perspective5946" inkscape:persp3d-origin="0.5 : 0.33333333 : 1" inkscape:vp_z="1 : 0.5 : 1" inkscape:vp_y="0 : 1000 : 0" inkscape:vp_x="0 : 0.5 : 1" sodipodi:type="inkscape:persp3d"/>
    <clipPath clipPathUnits="userSpaceOnUse" id="clipPath5594">
      <path d="m 6.65,697.994 190.645,0 0,39.432 -190.645,0 0,-39.432 z" id="path5596"/>
    </clipPath>
  </defs>
  <sodipodi:namedview id="base" pagecolor="#ffffff" bordercolor="#666666" borderopacity="1.0" inkscape:pageopacity="0.0" inkscape:pageshadow="2" inkscape:zoom="7.6162693" inkscape:cx="119.15283" inkscape:cy="24.644444" inkscape:document-units="px" inkscape:current-layer="layer1" showgrid="false" inkscape:window-width="1920" inkscape:window-height="1005" inkscape:window-x="0" inkscape:window-y="24" inkscape:window-maximized="1"/>
  <metadata id="metadata6055">
    <rdf:RDF>
      <cc:Work rdf:about="">
        <dc:format>image/svg+xml</dc:format>
        <dc:type rdf:resource="http://purl.org/dc/dcmitype/StillImage"/>
        <dc:title/>
      </cc:Work>
    </rdf:RDF>
  </metadata>
  <g inkscape:label="Calque 1" inkscape:groupmode="layer" id="layer1" transform="translate(2196.2957,524.42195)">
    <path d="m -2160.0063,-474.8652 0.011,0 0,-18.2075 -0.011,0 0,18.2075 z" style="fill:#5daf50;fill-opacity:1;fill-rule:nonzero;stroke:none" id="path5586"/>
    <path d="m -2160.1213,-474.8652 0.115,0 0,-18.2075 -0.115,0 0,18.2075 z" style="fill:#7f9786;fill-opacity:1;fill-rule:nonzero;stroke:none" id="path5588"/>
    <g transform="matrix(1.25,0,0,-1.25,-2204.6088,398.07105)" id="g5590">
      <g id="g5592" clip-path="url(#clipPath5594)">
        <g id="g5598" transform="translate(63.754898,727.3904)">
          <path d="M 0,0 0,-0.485 0,-0.62 0,-0.623 0,-0.62 c 0,-0.273 -0.328,-0.286 -0.403,-0.285 l 0,0.001 -0.007,0 -0.005,0 -0.005,0 -0.006,0 0,-0.001 c -0.077,-0.001 -0.403,0.012 -0.403,0.285 l 0,-0.003 0,0.003 0,0.135 0,0.485 -0.968,0 0,-0.933 c 0,-0.498 0.361,-0.551 0.86,-0.697 l 0.001,0 0.048,-0.014 0,-1.36 0,-0.317 c 0,-0.353 -0.462,-0.326 -0.462,-0.326 l -1.829,0 c 0,0 -0.463,-0.017 -0.463,0.337 l 0,0.316 0,1.361 0.008,0.003 10e-4,0 c 0.499,0.146 0.86,0.566 0.86,1.063 0,0 0,0.225 0.001,0.567 l -0.968,0 0,-0.62 c 0,-0.273 -0.328,-0.286 -0.404,-0.285 l 0,0.001 -0.007,0 -0.004,0 -0.005,0 -0.007,0 0,-0.001 c -0.077,-0.001 -0.404,0.012 -0.404,0.285 l 0,0.62 -0.968,0 0,-0.567 c 0,-0.497 0.361,-0.917 0.861,-1.063 l 0.002,0 0.067,-0.018 c -0.001,-0.301 0,-1.749 0,-1.749 0,-0.498 0.362,-0.918 0.86,-1.065 l 0.002,0 c 0.12,-0.034 0.249,-0.058 0.383,-0.058 l 0.386,0 0,-0.87 0,-0.444 c 0,-0.493 -0.645,-0.456 -0.645,-0.456 l -4.741,0 c 0,0 -0.646,-0.024 -0.646,0.47 l 0,0.443 0,0.857 0.441,0 c 0.135,0 0.263,0.014 0.384,0.049 l 0.001,0 c 0.5,0.145 0.861,0.568 0.861,1.064 0,0 0.002,2.435 0,2.684 l -10e-4,0.009 c 0.373,0.112 0.666,0.378 0.789,0.714 l -2.641,0 c 0.123,-0.338 0.421,-0.607 0.798,-0.717 l 10e-4,0 0.086,-0.022 0,-2.265 0,-0.317 c 0,-0.353 -0.463,-0.326 -0.463,-0.326 l -1.828,0 c 0,0 -0.464,-0.017 -0.464,0.337 l 0,0.316 0,2.265 0.084,0.021 0,0.001 0.002,0 c 0.374,0.109 0.669,0.372 0.793,0.707 L -12.8,0 c 0.123,-0.332 0.417,-0.595 0.788,-0.705 l -10e-4,-0.009 c -0.003,-0.247 0,-2.683 0,-2.683 0,-0.498 0.361,-0.918 0.86,-1.065 l 0.001,0 c 0.121,-0.034 0.25,-0.058 0.384,-0.058 l 0.405,0 c -0.002,-0.615 0,-1.475 0,-1.475 0,-0.695 0.504,-1.283 1.202,-1.487 l 0.002,0 0,-10e-4 c 0.169,-0.05 0.349,-0.083 0.536,-0.083 l 1.658,0 -0.004,-0.059 0,-0.979 0,-0.002 0,-0.562 c 0,-0.725 -1.05,-0.67 -1.05,-0.67 l -11.075,0 c 0,0 -0.855,-0.034 -0.855,0.691 l 0,0.654 0,0.89 -0.003,0.037 1.779,0 c 0.187,0 0.368,0.019 0.537,0.069 l 0.002,0 c 0.697,0.205 1.201,0.794 1.201,1.488 0,0 0.002,0.885 0.001,1.489 l 0.46,0 c 0.134,0 0.263,0.014 0.383,0.049 l 0.002,0 c 0.498,0.145 0.859,0.568 0.859,1.064 0,0 10e-4,2.131 10e-4,3.407 l -0.968,0 0,-3.004 0,-0.317 c 0,-0.353 -0.462,-0.326 -0.462,-0.326 l -1.83,0 c 0,0 -0.461,-0.017 -0.461,0.337 l 0,0.316 0,2.994 -0.97,0 c 0,-1.271 10e-4,-3.397 10e-4,-3.397 0,-0.498 0.361,-0.918 0.862,-1.065 0.121,-0.034 0.249,-0.058 0.382,-0.058 l 0.388,0 0,-0.87 0,-0.444 c 0,-0.493 -0.647,-0.456 -0.647,-0.456 l -4.741,0 c 0,0 -0.645,-0.024 -0.645,0.47 l 0,0.443 0,0.857 0.442,0 c 0.134,0 0.263,0.014 0.384,0.049 0.5,0.145 0.861,0.568 0.861,1.064 0,0 0.001,1.991 0.001,3.407 l -0.97,0 0,-3.004 0,-0.317 c 0,-0.353 -0.462,-0.326 -0.462,-0.326 l -1.828,0 c 0,0 -0.464,-0.017 -0.464,0.337 l 0,0.316 0,2.994 -0.968,0 c 0,-1.415 0.003,-3.397 0.003,-3.397 0,-0.498 0.359,-0.918 0.858,-1.065 l 10e-4,0 c 0.122,-0.034 0.25,-0.058 0.383,-0.058 l 0.405,0 c -10e-4,-0.615 0,-1.475 0,-1.475 0,-0.695 0.507,-1.283 1.204,-1.487 l 0,0 0,-10e-4 c 0.17,-0.05 0.349,-0.083 0.538,-0.083 l 1.496,0 -0.007,-0.063 c -0.005,-0.509 0,-1.688 0,-1.688 0,-1.024 0.743,-1.891 1.771,-2.19 l 0.001,0 0,-0.002 c 0.25,-0.071 0.514,-0.122 0.79,-0.122 l 4.389,0 0,-2.844 -13.175,0 0,-14.566 0.009,0 4.573,0 0,9.305 0,1.098 c 0,0.887 0.845,1.117 1.307,1.173 l 10.722,0 c 0,0 0.009,4.848 0,5.706 -10e-4,0.045 0.005,0.087 0,0.128 l 4.013,0 c 0.276,0 0.542,0.03 0.79,0.101 l 0,10e-4 0.001,0 c 1.028,0.301 1.771,1.168 1.771,2.191 0,0 0.005,1.179 0,1.689 l -0.008,0.083 1.622,0 c 0.186,0 0.367,0.019 0.536,0.069 l 0.002,0 c 0.698,0.205 1.202,0.794 1.202,1.488 0,0 0.003,0.885 0,1.489 l 0.461,0 c 0.134,0 0.261,0.014 0.383,0.049 l 0,0 c 0.501,0.145 0.861,0.568 0.861,1.064 0,0 0.003,1.521 0,1.768 l 0.026,0.009 0.001,0 c 0.499,0.146 0.861,0.199 0.861,0.697 0,0 0,0.46 0.001,0.933" style="fill:#878b8d;fill-opacity:1;fill-rule:nonzero;stroke:none" id="path5600"/>
        </g>
        <g id="g5602" transform="translate(59.588394,726.4854)">
          <path d="m 0,0 0,0.001 0.007,0 0.004,0 0.005,0 0.007,0 0,-0.001 c 0.076,-0.001 0.403,0.012 0.403,0.285 l 0,0.62 -0.83,0 0,-0.62 C -0.404,0.012 -0.077,-0.001 0,0" style="fill:#95254e;fill-opacity:1;fill-rule:nonzero;stroke:none" id="path5604"/>
        </g>
        <g id="g5606" transform="translate(56.430496,726.67661)">
          <path d="m 0,0 0.001,-0.009 c 0.002,-0.249 0,-2.684 0,-2.684 0,-0.496 -0.361,-0.919 -0.861,-1.064 l -0.001,0 c -0.121,-0.036 -0.248,-0.05 -0.383,-0.05 l -0.441,0 0,-0.856 0,-0.443 c 0,-0.494 0.646,-0.47 0.646,-0.47 l 4.74,0 c 0,0 0.645,-0.037 0.645,0.456 l 0,0.444 0,0.869 -0.386,0 c -0.133,0 -0.263,0.024 -0.383,0.059 l -0.002,0 c -0.497,0.147 -0.86,0.567 -0.86,1.065 0,0 -10e-4,1.448 0,1.749 l -0.067,0.017 -0.002,0 c -0.5,0.146 -0.861,0.567 -0.861,1.064 l 0,0.567 -0.996,0 C 0.667,0.378 0.374,0.112 0,0" style="fill:#95254e;fill-opacity:1;fill-rule:nonzero;stroke:none" id="path5608"/>
        </g>
        <g id="g5610" transform="translate(60.122192,725.7599)">
          <path d="m 0,0 -0.001,0 -0.008,-0.002 0,-1.361 0,-0.317 c 0,-0.353 0.463,-0.337 0.463,-0.337 l 1.829,0 c 0,0 0.461,-0.027 0.461,0.327 l 0,0.317 0,1.359 L 2.697,0 2.695,0 C 2.197,0.146 1.836,0.2 1.836,0.697 l 0,0.933 -0.975,0 C 0.86,1.289 0.86,1.064 0.86,1.064 0.86,0.566 0.499,0.146 0,0" style="fill:#95254e;fill-opacity:1;fill-rule:nonzero;stroke:none" id="path5612"/>
        </g>
        <g id="g5614" transform="translate(52.7948,726.68381)">
          <path d="m 0,0 -0.002,0 0,-0.001 -0.083,-0.021 0,-2.265 0,-0.317 c 0,-0.353 0.463,-0.336 0.463,-0.336 l 1.828,0 c 0,0 0.463,-0.028 0.463,0.326 l 0,0.317 0,2.265 -0.086,0.021 -0.001,0 C 2.205,0.1 1.908,0.368 1.784,0.707 l -0.99,0 C 0.669,0.372 0.374,0.109 0,0" style="fill:#95254e;fill-opacity:1;fill-rule:nonzero;stroke:none" id="path5616"/>
        </g>
        <g id="g5618" transform="translate(62.925507,726.77)">
          <path d="m 0,0 c 0,-0.273 0.327,-0.285 0.404,-0.285 l 0,0.001 0.006,0 0.004,0 0.005,0 0.007,0 0,-0.001 c 0.076,0 0.403,0.012 0.403,0.285 l 0,0.136 0,0.484 L 0,0.62 0,0.136 0,0" style="fill:#95254e;fill-opacity:1;fill-rule:nonzero;stroke:none" id="path5620"/>
        </g>
        <g id="g5622" transform="translate(40.762497,722.9193)">
          <path d="m 0,0 0,0 c -0.121,-0.035 -0.25,-0.049 -0.384,-0.049 l -0.442,0 0,-0.857 0,-0.443 c 0,-0.494 0.646,-0.47 0.646,-0.47 l 4.741,0 c 0,0 0.646,-0.037 0.646,0.456 l 0,0.444 0,0.87 -0.387,0 c -0.134,0 -0.262,0.024 -0.383,0.058 -0.5,0.147 -0.861,0.567 -0.861,1.066 0,0 -0.002,2.125 -10e-4,3.396 l -2.713,0 C 0.862,3.055 0.861,1.064 0.861,1.064 0.861,0.568 0.5,0.146 0,0" style="fill:#95254e;fill-opacity:1;fill-rule:nonzero;stroke:none" id="path5624"/>
        </g>
        <g id="g5626" transform="translate(37.901306,724.08009)">
          <path d="m 0,0 c 0,-0.353 0.463,-0.337 0.463,-0.337 l 1.829,0 c 0,0 0.462,-0.027 0.462,0.326 l 0,0.317 0,3.004 L 0,3.31 0,0.316 0,0" style="fill:#95254e;fill-opacity:1;fill-rule:nonzero;stroke:none" id="path5628"/>
        </g>
        <g id="g5630" transform="translate(49.026901,723.98331)">
          <path d="m 0,0 c 0,-0.496 -0.361,-0.918 -0.859,-1.064 l -0.002,0 c -0.12,-0.035 -0.249,-0.049 -0.383,-0.049 l -0.46,0 c 10e-4,-0.604 -0.001,-1.489 -0.001,-1.489 0,-0.694 -0.504,-1.283 -1.201,-1.488 l -0.002,0 c -0.169,-0.05 -0.35,-0.069 -0.537,-0.069 l -1.779,0 0.003,-0.037 0,-0.89 0,-0.654 c 0,-0.725 0.855,-0.691 0.855,-0.691 l 11.075,0 c 0,0 1.05,-0.055 1.05,0.67 l 0,0.562 0,0.002 0,0.979 0.004,0.059 -1.658,0 c -0.187,0 -0.367,0.034 -0.536,0.083 l 0,10e-4 -0.002,0 c -0.698,0.204 -1.202,0.792 -1.202,1.487 0,0 -0.002,0.86 0,1.475 l -0.405,0 c -0.134,0 -0.263,0.024 -0.384,0.058 l -10e-4,0 c -0.499,0.147 -0.86,0.567 -0.86,1.065 0,0 -0.003,2.436 0,2.683 L 2.716,2.702 C 2.345,2.812 2.051,3.075 1.928,3.407 l -1.927,0 C 0.001,2.131 0,0 0,0" style="fill:#95254e;fill-opacity:1;fill-rule:nonzero;stroke:none" id="path5632"/>
        </g>
        <g id="g5634" transform="translate(45.306702,724.08009)">
          <path d="m 0,0 c 0,-0.353 0.461,-0.337 0.461,-0.337 l 1.83,0 c 0,0 0.462,-0.027 0.462,0.326 l 0,0.317 0,3.004 L 0,3.31 0,0.316 0,0" style="fill:#95254e;fill-opacity:1;fill-rule:nonzero;stroke:none" id="path5636"/>
        </g>
        <g id="g5638" transform="translate(64.819199,727.3904)">
          <path d="m 0,0 -0.095,0 c -0.001,-0.473 -0.001,-0.933 -0.001,-0.933 0,-0.498 -0.363,-0.551 -0.861,-0.697 l -0.001,0 -0.026,-0.009 c 0.003,-0.247 0,-1.768 0,-1.768 0,-0.496 -0.361,-0.919 -0.861,-1.064 l -0.001,0 C -1.967,-4.506 -2.094,-4.52 -2.228,-4.52 l -0.461,0 c 0.002,-0.604 0,-1.489 0,-1.489 0,-0.694 -0.504,-1.283 -1.203,-1.488 l -0.002,0 c -0.169,-0.05 -0.349,-0.069 -0.535,-0.069 l -1.622,0 0.008,-0.083 c 0.005,-0.51 0,-1.689 0,-1.689 0,-1.023 -0.743,-1.89 -1.771,-2.191 l -0.001,0 0,-10e-4 c -0.249,-0.071 -0.514,-0.101 -0.79,-0.101 l -4.013,0 c 0.005,-0.041 -10e-4,-0.083 0,-0.128 0.009,-0.858 0,-5.706 0,-5.706 l -10.722,0 c -0.463,-0.056 -1.307,-0.286 -1.307,-1.173 l 0,-1.098 0,-9.305 24.647,0" style="fill:#95254e;fill-opacity:1;fill-rule:nonzero;stroke:none" id="path5640"/>
        </g>
        <g id="g5642" transform="translate(35.691299,712.9156)">
          <path d="m 0,0 13.074,0 0,2.844 -4.39,0 c -0.275,0 -0.54,0.051 -0.789,0.122 l 0,10e-4 -0.002,0 c -1.027,0.3 -1.771,1.167 -1.771,2.191 0,0 -0.004,1.179 0,1.688 l 0.007,0.063 -1.496,0 c -0.188,0 -0.368,0.033 -0.537,0.083 l 0,0.001 -0.001,0 C 3.398,7.197 2.892,7.785 2.892,8.48 c 0,0 -10e-4,0.859 0,1.474 l -0.405,0 c -0.133,0 -0.262,0.024 -0.383,0.059 l -10e-4,0 c -0.5,0.147 -0.859,0.567 -0.859,1.065 0,0 -0.003,1.982 -0.003,3.397 l -1.342,0 0,-14.475 0.092,0" style="fill:#95254e;fill-opacity:1;fill-rule:nonzero;stroke:none" id="path5644"/>
        </g>
        <g id="g5646" transform="translate(47.642593,736.31619)">
          <path d="m 0,0 c -0.052,0 -0.49,-0.009 -0.49,-0.331 -0.005,-0.25 0,-6.599 0,-6.599 0,-0.5 0.359,-0.919 0.859,-1.065 l 0.049,-0.016 0,-0.914 0.967,0 0,0.918 0.028,0.012 c 0.5,0.146 0.859,0.565 0.859,1.065 0,0 0.005,5.8 0,6.044 0,0.327 -0.438,0.337 -0.49,0.337 l -0.006,0 c 0,0 -0.471,0 -0.471,-0.321 l 0,-5.75 0,-0.364 c 0,-0.277 -0.327,-0.289 -0.402,-0.289 l -0.012,0 -0.006,0 -0.005,0 c -0.076,0 -0.407,0.012 -0.407,0.289 l 0,0.364 0,6.3 C 0.473,0 0.004,0 0.004,0 L 0,0" style="fill:#bfc8c0;fill-opacity:1;fill-rule:nonzero;stroke:none" id="path5648"/>
        </g>
        <g id="g5650" transform="translate(43.897201,736.95711)">
          <path d="m 0,0 c -0.051,0 -0.484,-0.008 -0.489,-0.336 l 0,-7.235 c 0,-0.5 0.364,-0.919 0.859,-1.065 l 0.004,0 0.066,-0.016 0,-0.914 0.968,0 0,0.924 0.005,0.006 0.005,0 c 0.501,0.146 0.86,0.565 0.86,1.065 l 0,6.963 c -0.006,0.332 -0.466,0.337 -0.494,0.337 l -0.001,0 c 0,0 -0.473,-0.005 -0.473,-0.327 l 0,-6.663 0,-0.364 c 0,-0.277 -0.326,-0.289 -0.408,-0.289 l -0.005,0 -0.006,0 -0.005,0 c -0.082,0 -0.408,0.012 -0.408,0.289 l 0,0.364 0,6.94 C 0.478,0 0.006,0 0.006,0 L 0,0" style="fill:#bfc8c0;fill-opacity:1;fill-rule:nonzero;stroke:none" id="path5652"/>
        </g>
        <g id="g5654" transform="translate(51.3871,735.2292)">
          <path d="m 0,0 c 0,0 -0.494,0.005 -0.5,-0.337 l 0,-7.147 c 0,-0.125 0.027,-0.24 0.065,-0.354 l 2.636,0 c 0.044,0.114 0.066,0.234 0.066,0.354 0,0 0.005,6.354 0,6.598 -0.005,0.332 -0.465,0.337 -0.494,0.337 l -10e-4,0 c 0,0 -0.473,0 -0.473,-0.326 l 0,-6.295 0,-0.364 c 0,-0.277 -0.326,-0.288 -0.403,-0.288 l 0,0.007 -0.004,0 -0.005,-0.007 -0.006,0.007 -0.006,0 0,-0.007 c -0.076,0 -0.408,0.011 -0.408,0.288 l 0,0.364 0,6.844 C 0.467,0 0,0 0,0" style="fill:#bfc8c0;fill-opacity:1;fill-rule:nonzero;stroke:none" id="path5656"/>
        </g>
        <g id="g5658" transform="translate(38.3573,737.42551)">
          <path d="m 0,0 -0.004,0 c 0,0 -0.473,0 -0.473,-0.321 l 0,-6.942 0,-0.369 c 0,-0.271 -0.326,-0.282 -0.408,-0.282 l -0.006,0 -0.005,0 -0.011,0 c -0.076,0 -0.402,0.011 -0.402,0.282 l 0,0.369 0,6.942 C -1.309,0 -1.782,0 -1.782,0 l -0.005,0 c -0.051,0 -0.485,-0.009 -0.49,-0.337 l 0,-7.24 c 0,-0.494 0.359,-0.913 0.854,-1.06 l 0,-0.011 0,-1.386 0.967,0 0,1.37 0.082,0.021 0,0.006 c 0.5,0.141 0.864,0.566 0.864,1.06 l 0,7.24 C 0.485,-0.009 0.052,0 0,0" style="fill:#bfc8c0;fill-opacity:1;fill-rule:nonzero;stroke:none" id="path5660"/>
        </g>
        <g id="g5662" transform="translate(40.206406,737.32739)">
          <path d="m 0,0 c 0,0 -0.494,0.005 -0.501,-0.336 l 0,-7.149 c 0,-0.5 0.365,-0.918 0.866,-1.065 l 0.086,-0.022 0,-1.364 0.968,0 0,1.375 -0.006,0.011 c 0.5,0.152 0.853,0.571 0.853,1.065 0,0 0.006,6.719 0,6.963 0,0.328 -0.438,0.337 -0.489,0.337 l -0.004,0 c 0,0 -0.474,0 -0.474,-0.326 l 0,-6.664 0,-0.364 c 0,-0.251 -0.267,-0.284 -0.374,-0.284 -0.011,0 -0.021,0.001 -0.028,0.001 l -0.005,0 -0.006,0 -0.006,0 -0.005,0 c -0.007,0 -0.017,-0.001 -0.029,-0.001 -0.107,0 -0.373,0.033 -0.373,0.284 l 0,0.364 0,6.849 C 0.473,-0.005 0,0 0,0" style="fill:#bfc8c0;fill-opacity:1;fill-rule:nonzero;stroke:none" id="path5664"/>
        </g>
        <g id="g5666" transform="translate(62.4487,730.1799)">
          <path d="m 0,0 c -0.052,0 -0.489,-0.01 -0.489,-0.337 -0.006,-0.158 -0.006,-1.506 0,-2.452 l 0.968,0 0,2.468 C 0.479,0 0.005,0 0.005,0 L 0,0" style="fill:#bfc8c0;fill-opacity:1;fill-rule:nonzero;stroke:none" id="path5668"/>
        </g>
        <g id="g5670" transform="translate(55.008102,733.9355)">
          <path d="m 0,0 c -0.052,0 -0.49,-0.009 -0.49,-0.337 -0.005,-0.244 0,-5.859 0,-5.859 0,-0.125 0.022,-0.239 0.06,-0.349 l 2.641,0 c 0.038,0.11 0.06,0.224 0.06,0.349 0,0 0.005,4.789 0,5.038 0,0.333 -0.465,0.338 -0.494,0.338 l -10e-4,0 c 0,0 -0.473,-0.006 -0.473,-0.327 l 0,-4.74 0,-0.364 c 0,-0.271 -0.326,-0.283 -0.402,-0.283 l -0.005,0 -0.006,0 -0.005,0 -0.005,0 c -0.077,0 -0.403,0.012 -0.403,0.283 l 0,0.364 0,5.561 C 0.477,0 0.004,0 0.004,0 L 0,0" style="fill:#bfc8c0;fill-opacity:1;fill-rule:nonzero;stroke:none" id="path5672"/>
        </g>
        <g id="g5674" transform="translate(64.227402,728.7173)">
          <path d="m 0,0 -0.001,0 c 0,0 -0.473,0 -0.473,-0.326 l 0,-1 0.973,0 c 0,0.43 0,0.869 -0.006,0.989 C 0.493,-0.005 0.028,0 0,0" style="fill:#bfc8c0;fill-opacity:1;fill-rule:nonzero;stroke:none" id="path5676"/>
        </g>
        <g id="g5678" transform="translate(60.488098,731.28281)">
          <path d="m 0,0 -0.002,0 c 0,0 -0.473,-0.005 -0.473,-0.326 l 0,-2.999 0,-0.567 0.967,0 c 0,1.082 0.006,3.365 0,3.555 C 0.492,-0.005 0.028,0 0,0" style="fill:#bfc8c0;fill-opacity:1;fill-rule:nonzero;stroke:none" id="path5680"/>
        </g>
        <g id="g5682" transform="translate(58.708893,732.2888)">
          <path d="m 0,0 c 0,0 -0.489,0.006 -0.494,-0.337 l 0,-4.561 0.967,0 0,0.567 0,4.005 C 0.473,-0.005 0,0 0,0" style="fill:#bfc8c0;fill-opacity:1;fill-rule:nonzero;stroke:none" id="path5684"/>
        </g>
        <g id="g5686" transform="translate(34.802704,737.42551)">
          <path d="m 0,0 -0.005,0 c 0,0 -0.472,0 -0.472,-0.321 l 0,-6.942 0,-0.369 c 0,-0.271 -0.326,-0.282 -0.403,-0.282 l -0.011,0 -0.005,0 -0.005,0 c -0.082,0 -0.408,0.011 -0.408,0.282 l 0,0.369 0,6.942 C -1.309,0 -1.782,0 -1.782,0 l -0.005,0 c -0.051,0 -0.485,-0.009 -0.489,-0.337 l 0,-7.24 c 0,-0.494 0.364,-0.919 0.863,-1.06 l 0,-0.006 0.082,-0.016 0,-4.37 0,-0.315 c 0,-0.324 -0.387,-0.337 -0.453,-0.337 l -0.01,0 -1.825,0 c 0,0 -0.009,-0.001 -0.023,-0.001 -0.093,0 -0.444,0.021 -0.444,0.327 l 0,0.315 0,4.37 0.086,0.022 c 0.5,0.147 0.864,0.565 0.864,1.065 l 0,7.149 c -0.005,0.331 -0.469,0.336 -0.499,0.336 l -0.001,0 c 0,0 -0.473,-0.005 -0.473,-0.326 l 0,-6.849 0,-0.364 c 0,-0.277 -0.326,-0.283 -0.402,-0.283 l -0.005,0 -0.006,0 -0.005,0 -0.005,0 c -0.077,0 -0.403,0.006 -0.403,0.283 l 0,0.364 0,6.664 c 0,0.326 -0.473,0.326 -0.473,0.326 l -0.004,0 c -0.052,0 -0.486,-0.009 -0.491,-0.337 -0.005,-0.245 0,-6.963 0,-6.963 0,-0.494 0.36,-0.913 0.854,-1.065 l -0.006,-0.006 0,-4.789 c 0,-0.494 0.364,-0.918 0.865,-1.064 0.12,-0.033 0.249,-0.05 0.38,-0.05 l 0.441,0 0,-0.853 0,-0.446 c 0,-0.445 -0.521,-0.467 -0.624,-0.467 l -0.018,0 -4.74,0 c 0,0 -0.011,-0.001 -0.031,-0.001 -0.131,0 -0.616,0.029 -0.616,0.452 l 0,0.445 0,0.87 0.387,0 c 0.136,0 0.26,0.027 0.38,0.06 l 0.006,0 c 0.494,0.147 0.858,0.571 0.858,1.065 l 0,4.311 0.066,0.017 0.005,0 c 0.495,0.146 0.859,0.564 0.859,1.065 l 0,7.234 c -0.005,0.328 -0.439,0.337 -0.49,0.337 l -0.005,0 c 0,0 -0.473,0 -0.473,-0.321 l 0,-6.941 0,-0.364 c 0,-0.277 -0.326,-0.288 -0.402,-0.288 l 0,0.005 -0.011,0 -0.005,-0.005 -0.005,0.005 -0.006,0 0,-0.005 c -0.076,0 -0.402,0.011 -0.402,0.288 l 0,0.364 0,6.664 c 0,0.322 -0.473,0.326 -0.473,0.326 0,0 -0.489,0.006 -0.495,-0.337 l 0,-6.962 c 0,-0.501 0.359,-0.919 0.859,-1.065 l 0.005,0 0.005,-0.006 0,-3.919 0,-0.315 c 0,-0.324 -0.387,-0.337 -0.452,-0.337 l -0.009,0 -1.832,0 c 0,0 -0.008,-0.001 -0.022,-0.001 -0.093,0 -0.44,0.021 -0.44,0.327 l 0,0.315 0,3.919 0.049,0.017 c 0.5,0.146 0.865,0.564 0.865,1.065 l 0,6.599 c -0.006,0.321 -0.444,0.331 -0.496,0.331 l -0.006,0 c 0,0 -0.467,0 -0.467,-0.321 l 0,-6.3 0,-0.364 c 0,-0.277 -0.326,-0.288 -0.407,-0.288 l 0,0.005 -0.006,0 -0.005,-0.005 -0.006,0.005 -0.005,0 0,-0.005 c -0.076,0 -0.403,0.011 -0.403,0.288 l 0,0.364 0,5.751 c 0,0.32 -0.472,0.32 -0.472,0.32 l -0.005,0 c -0.051,0 -0.484,-0.009 -0.489,-0.336 -0.006,-0.245 0,-6.044 0,-6.044 0,-0.501 0.358,-0.919 0.858,-1.065 l 0.028,-0.012 0,-4.327 c 0,-0.494 0.363,-0.918 0.858,-1.064 l 0.006,0 c 0.119,-0.033 0.244,-0.05 0.38,-0.05 l 0.462,0 0,-1.489 c 0,-0.691 0.506,-1.283 1.202,-1.484 0.168,-0.048 0.353,-0.07 0.538,-0.07 l 1.782,0 -0.005,-0.038 0,-0.892 0,-0.653 c 0,-0.662 -0.718,-0.69 -0.837,-0.69 -0.011,0 -0.016,0.001 -0.016,0.001 l -11.078,0 c 0,0 -0.018,-0.001 -0.049,-0.001 -0.207,0 -1,0.041 -1,0.668 l 0,0.566 0,0.979 -0.005,0.06 1.657,0 c 0.185,0 0.37,0.032 0.538,0.081 0.696,0.207 1.202,0.794 1.202,1.489 0,0 0.005,0.859 0,1.473 l 0.408,0 c 0.13,0 0.26,0.027 0.38,0.06 0.5,0.147 0.864,0.571 0.864,1.065 l 0,2.686 0,0.005 c 0.495,0.147 0.854,0.566 0.854,1.06 l 0,7.148 c -0.006,0.332 -0.465,0.337 -0.494,0.337 l -10e-4,0 c 0,0 -0.473,0 -0.473,-0.326 l 0,-6.844 0,-0.365 c 0,-0.276 -0.326,-0.288 -0.407,-0.288 l 0,0.007 -0.006,0 -0.006,-0.007 -0.005,0.007 -0.005,0 0,-0.007 c -0.076,0 -0.403,0.012 -0.403,0.288 l 0,0.365 0,6.295 c 0,0.325 -0.473,0.325 -0.473,0.325 0,0 -0.489,0.006 -0.495,-0.336 -0.005,-0.245 0,-6.599 0,-6.599 0,-0.494 0.359,-0.918 0.86,-1.06 l 0.087,-0.022 0,-2.266 0,-0.315 c 0,-0.324 -0.388,-0.337 -0.453,-0.337 l -0.009,0 -1.832,0 c 0,0 -0.009,-0.001 -0.022,-0.001 -0.093,0 -0.44,0.021 -0.44,0.327 l 0,0.315 0,2.267 0.087,0.021 c 0.5,0.148 0.859,0.565 0.859,1.066 0,0 0.005,5.615 0,5.859 0,0.328 -0.439,0.337 -0.49,0.337 l -0.005,0 c 0,0 -0.472,0 -0.472,-0.326 l 0,-5.561 0,-0.364 c 0,-0.271 -0.327,-0.282 -0.403,-0.282 l -0.006,0 -0.005,0 -0.006,0 -0.005,0 c -0.075,0 -0.402,0.011 -0.402,0.282 l 0,0.364 0,4.74 c 0,0.321 -0.473,0.327 -0.473,0.327 0,0 -0.495,0.005 -0.5,-0.338 l 0,-5.038 c 0,-0.495 0.358,-0.913 0.853,-1.06 l 0,-0.011 0,-2.686 c 0,-0.494 0.359,-0.918 0.859,-1.064 0.125,-0.033 0.25,-0.05 0.386,-0.05 l 0.44,0 0,-0.853 0,-0.446 c 0,-0.445 -0.524,-0.467 -0.629,-0.467 l -0.018,0 -4.74,0 c 0,0 -0.01,-0.001 -0.031,-0.001 -0.13,0 -0.609,0.029 -0.609,0.452 l 0,0.445 0,0.87 0.385,0 c 0.131,0 0.261,0.027 0.38,0.06 0.501,0.147 0.865,0.571 0.865,1.065 l 0,1.751 0.065,0.017 c 0.5,0.145 0.864,0.564 0.864,1.065 l 0,5.125 c -0.005,0.332 -0.469,0.337 -0.498,0.337 l -0.001,0 c 0,0 -0.468,-0.005 -0.468,-0.326 l 0,-4.005 0,-1.186 c 0,-0.277 -0.331,-0.288 -0.408,-0.288 l 0,0.005 -0.005,0 -0.006,0 -0.005,0 -0.005,0 0,-0.005 c -0.077,0 -0.402,0.011 -0.402,0.288 l 0,1.186 0,2.999 c 0,0.321 -0.474,0.326 -0.474,0.326 0,0 -0.494,0.006 -0.494,-0.337 -0.006,-0.25 0,-4.119 0,-4.119 0,-0.501 0.359,-0.92 0.859,-1.065 l 0.011,-0.006 0,-1.359 0,-0.315 c 0,-0.324 -0.392,-0.337 -0.458,-0.337 l -0.01,0 -1.826,0 c 0,0 -0.009,-0.001 -0.022,-0.001 -0.093,0 -0.439,0.021 -0.439,0.327 l 0,0.315 0,1.359 0.047,0.017 c 0.5,0.145 0.86,0.2 0.86,0.695 0,0 0.005,3.141 0,3.386 0,0.328 -0.439,0.337 -0.49,0.337 l -0.005,0 c 0,0 -0.474,0 -0.474,-0.321 l 0,-2.951 0,-0.136 c 0,-0.277 -0.326,-0.288 -0.402,-0.288 l 0,0.005 -0.005,0 -0.005,0 -0.005,0 -0.006,0 0,-0.005 c -0.076,0 -0.402,0.011 -0.402,0.288 l 0,0.136 0,1.484 c 0,0.326 -0.473,0.326 -0.473,0.326 0,0 -0.495,0.005 -0.495,-0.337 -0.005,-0.245 0,-1.924 0,-1.924 0,-0.495 0.359,-0.55 0.859,-0.695 l 0.027,-0.012 c -0.006,-0.245 0,-1.767 0,-1.767 0,-0.494 0.359,-0.918 0.859,-1.064 0.125,-0.033 0.25,-0.05 0.386,-0.05 l 0.462,0 c -0.006,-0.602 0,-1.489 0,-1.489 0,-0.691 0.505,-1.283 1.201,-1.484 0.168,-0.048 0.348,-0.07 0.538,-0.07 l 1.62,0 -0.005,-0.081 c -0.006,-0.512 0,-1.691 0,-1.691 0,-1.023 0.738,-1.892 1.766,-2.19 l 0.006,0 c 0.244,-0.078 0.511,-0.105 0.788,-0.105 l 4.011,0 0,-0.124 c -0.005,-0.86 0,-5.708 0,-5.708 l 10.724,0 c 0.462,-0.061 1.305,-0.288 1.305,-1.174 l 0,-1.097 0,-9.307 4.392,0 0,14.567 -12.986,0 0,2.843 4.392,0 c 0.277,0 0.538,0.05 0.788,0.12 l 0,0.006 0.005,0 c 1.023,0.299 1.767,1.169 1.767,2.19 0,0 0.005,1.179 0,1.685 l -0.005,0.066 1.494,0 c 0.191,0 0.37,0.032 0.539,0.081 0.701,0.207 1.201,0.794 1.201,1.489 0,0 0.005,0.859 0.005,1.473 l 0.403,0 c 0.136,0 0.261,0.027 0.386,0.06 0.5,0.147 0.859,0.571 0.859,1.065 0,0 0.005,4.54 0,4.784 l 0,0.011 c 0.494,0.147 0.853,0.566 0.853,1.06 l 0,7.24 C 0.485,-0.009 0.051,0 0,0" style="fill:#bfc8c0;fill-opacity:1;fill-rule:nonzero;stroke:none" id="path5688"/>
        </g>
        <g id="g5690" transform="translate(73.964996,714.222)">
          <path d="m 0,0 c -2.366,0 -4.135,1.827 -4.135,3.885 l 0,8.922 c 0,0.212 0.058,0.327 0.269,0.327 l 0.981,0 c 0.173,0 0.212,-0.153 0.212,-0.327 l 0,-8.846 c 0,-1.307 1.115,-2.577 2.731,-2.577 1.577,0 2.692,1.327 2.692,2.558 l 0,8.865 c 0,0.212 0.057,0.327 0.269,0.327 l 0.961,0 c 0.193,0 0.231,-0.153 0.231,-0.327 l 0,-8.904 C 4.211,1.808 2.442,0 0,0" style="fill:#878b8d;fill-opacity:1;fill-rule:nonzero;stroke:none" id="path5692"/>
        </g>
        <g id="g5694" transform="translate(89.042206,714.472)">
          <path d="m 0,0 -0.596,0 c -0.25,0 -0.5,0.23 -0.635,0.443 l -5.096,7.884 c -0.404,0.615 -1,0.499 -1,-0.346 l 0,-7.731 C -7.327,0.096 -7.461,0 -7.654,0 L -8.5,0 c -0.173,0 -0.288,0.134 -0.288,0.269 l 0,12.288 c 0,0.212 0.057,0.327 0.269,0.327 l 0.731,0 c 0.288,0 0.461,-0.23 0.615,-0.48 l 5,-7.789 C -1.75,3.961 -1.135,3.98 -1.135,4.923 l 0,7.634 c 0,0.212 0.058,0.327 0.27,0.327 l 0.961,0 c 0.192,0 0.212,-0.153 0.212,-0.327 l 0,-12.307 C 0.308,0.096 0.192,0 0,0" style="fill:#878b8d;fill-opacity:1;fill-rule:nonzero;stroke:none" id="path5696"/>
        </g>
        <g id="g5698" transform="translate(92.657196,714.472)">
          <path d="m 0,0 -0.846,0 c -0.173,0 -0.288,0.134 -0.288,0.269 l 0,12.288 c 0,0.212 0.058,0.327 0.269,0.327 l 0.962,0 c 0.192,0 0.23,-0.153 0.23,-0.327 l 0,-12.307 C 0.327,0.096 0.193,0 0,0" style="fill:#878b8d;fill-opacity:1;fill-rule:nonzero;stroke:none" id="path5700"/>
        </g>
        <g id="g5702" transform="translate(100.6769,714.87601)">
          <path d="m 0,0 c -0.115,-0.289 -0.288,-0.404 -0.538,-0.404 l -0.711,0 c -0.289,0 -0.462,0.134 -0.559,0.404 l -4.807,12.25 c -0.077,0.134 0.02,0.23 0.193,0.23 l 1.038,0 c 0.269,0 0.48,-0.096 0.596,-0.384 l 3.25,-8.712 c 0.346,-0.884 0.961,-0.827 1.269,0.02 l 3.251,8.692 c 0.114,0.327 0.268,0.384 0.596,0.384 l 1.037,0 c 0.174,0 0.271,-0.096 0.193,-0.23" style="fill:#878b8d;fill-opacity:1;fill-rule:nonzero;stroke:none" id="path5704"/>
        </g>
        <g id="g5706" transform="translate(113.54311,714.472)">
          <path d="m 0,0 -6.865,0 c -0.173,0 -0.212,0.154 -0.212,0.326 l 0,12.251 c 0,0.173 0.135,0.307 0.307,0.307 l 6.77,0 c 0.135,0 0.27,-0.115 0.27,-0.269 l 0,-0.865 C 0.27,11.557 0.154,11.442 0,11.442 l -4.788,0 c -0.519,0 -0.828,-0.481 -0.828,-0.865 l 0,-2.308 c 0,-0.481 0.386,-0.885 0.867,-0.885 l 4.095,0 c 0.154,0 0.25,-0.115 0.25,-0.307 l 0,-0.847 c 0,-0.173 -0.154,-0.288 -0.269,-0.288 l -4.057,0 c -0.482,0 -0.886,-0.423 -0.886,-0.904 l 0,-2.615 c 0,-0.635 0.346,-0.962 0.828,-0.962 l 4.788,0 c 0.154,0 0.27,-0.135 0.27,-0.327 l 0,-0.846 C 0.27,0.115 0.135,0 0,0" style="fill:#878b8d;fill-opacity:1;fill-rule:nonzero;stroke:none" id="path5708"/>
        </g>
        <g id="g5710" transform="translate(121.54359,723.8372)">
          <path d="m 0,0 c 0,1.327 -1.057,2.211 -2.307,2.211 l -1.251,0 c -0.5,0 -0.826,-0.307 -0.826,-0.788 l 0,-3.461 c 0,-0.539 0.25,-0.808 0.826,-0.808 l 1.289,0 C -0.961,-2.846 0,-1.731 0,-0.443 L 0,0 z m 0.365,-3.038 c -0.384,-0.366 -0.326,-0.847 0,-1.097 0.5,-0.384 0.924,-1.461 0.924,-2.423 l 0,-2.557 c 0,-0.154 -0.135,-0.25 -0.327,-0.25 l -0.847,0 c -0.172,0 -0.288,0.134 -0.288,0.269 l 0,2.519 c 0,1.5 -0.73,2.404 -1.827,2.404 l -1.558,0 c -0.5,0 -0.826,-0.269 -0.826,-0.827 l 0,-4.019 c 0,-0.231 -0.057,-0.346 -0.27,-0.346 l -0.98,0 c -0.174,0 -0.211,0.154 -0.211,0.326 l 0,12.289 c 0,0.154 0.134,0.269 0.326,0.269 l 3.308,0 c 1.98,0 3.673,-1.461 3.673,-3.5 l 0,-0.442 c 0,-1 -0.423,-1.942 -1.097,-2.615" style="fill:#878b8d;fill-opacity:1;fill-rule:nonzero;stroke:none" id="path5712"/>
        </g>
        <g id="g5714" transform="translate(127.71831,714.222)">
          <path d="M 0,0 C -1.52,0 -2.808,0.769 -3.308,1.769 -3.366,1.865 -3.347,1.98 -3.25,2.038 l 0.98,0.654 C -2.174,2.769 -2.078,2.75 -2,2.634 -1.654,2.077 -1.058,1.48 0,1.48 c 1.134,0 2.134,0.75 2.134,1.924 0,1.423 -1.039,2.134 -1.961,2.538 -2.077,0.942 -3.366,2.039 -3.366,3.943 0,1.922 1.597,3.403 3.634,3.403 1.346,0 2.578,-0.769 3.02,-1.75 0.038,-0.096 0.058,-0.269 -0.038,-0.327 L 2.384,10.634 c -0.097,-0.057 -0.172,-0.019 -0.231,0.077 -0.308,0.596 -0.827,1.058 -1.788,1.058 -1.115,0 -1.943,-0.789 -1.943,-1.866 0,-1.077 0.635,-1.807 1.847,-2.269 C 1.827,7.057 3.749,5.865 3.749,3.481 3.749,1.269 1.749,0 0,0" style="fill:#878b8d;fill-opacity:1;fill-rule:nonzero;stroke:none" id="path5716"/>
        </g>
        <g id="g5718" transform="translate(134.2554,714.472)">
          <path d="m 0,0 -0.845,0 c -0.174,0 -0.289,0.134 -0.289,0.269 l 0,12.288 c 0,0.212 0.058,0.327 0.268,0.327 l 0.962,0 c 0.192,0 0.231,-0.153 0.231,-0.327 l 0,-12.307 C 0.327,0.096 0.192,0 0,0" style="fill:#878b8d;fill-opacity:1;fill-rule:nonzero;stroke:none" id="path5720"/>
        </g>
        <g id="g5722" transform="translate(145.19901,725.9142)">
          <path d="m 0,0 -3.078,0 c -0.519,0 -0.826,-0.481 -0.826,-0.866 l 0,-10.25 c 0,-0.172 -0.039,-0.326 -0.212,-0.326 l -0.981,0 c -0.211,0 -0.269,0.115 -0.269,0.346 l 0,10.23 C -5.366,-0.481 -5.673,0 -6.193,0 L -9.27,0 c -0.154,0 -0.268,0.115 -0.268,0.307 l 0,0.866 c 0,0.153 0.133,0.269 0.268,0.269 l 9.27,0 c 0.115,0 0.269,-0.116 0.269,-0.269 l 0,-0.866 C 0.269,0.115 0.154,0 0,0" style="fill:#878b8d;fill-opacity:1;fill-rule:nonzero;stroke:none" id="path5724"/>
        </g>
        <g id="g5726" transform="translate(151.3148,728.5295)">
          <path d="m 0,0 c -0.154,-0.135 -0.328,-0.077 -0.462,0.038 l -0.346,0.346 c -0.135,0.135 -0.135,0.347 0.019,0.462 L 0.615,2.442 C 0.75,2.596 0.98,2.558 1.133,2.403 L 1.691,1.846 c 0.096,-0.115 0.096,-0.269 0,-0.365 L 0,0 z m 2.23,-14.057 -6.864,0 c -0.174,0 -0.213,0.153 -0.213,0.326 l 0,12.25 c 0,0.173 0.135,0.308 0.308,0.308 l 6.769,0 c 0.135,0 0.27,-0.116 0.27,-0.27 l 0,-0.865 C 2.5,-2.5 2.383,-2.615 2.23,-2.615 l -4.788,0 c -0.519,0 -0.827,-0.482 -0.827,-0.866 l 0,-2.308 c 0,-0.48 0.384,-0.884 0.866,-0.884 l 4.095,0 c 0.154,0 0.25,-0.116 0.25,-0.308 l 0,-0.846 C 1.826,-8 1.673,-8.115 1.557,-8.115 l -4.058,0 c -0.481,0 -0.884,-0.423 -0.884,-0.904 l 0,-2.616 c 0,-0.635 0.346,-0.961 0.827,-0.961 l 4.788,0 c 0.153,0 0.27,-0.135 0.27,-0.327 l 0,-0.847 c 0,-0.173 -0.135,-0.287 -0.27,-0.287" style="fill:#878b8d;fill-opacity:1;fill-rule:nonzero;stroke:none" id="path5728"/>
        </g>
        <g id="g5730" transform="translate(75.637497,707.60989)">
          <path d="m 0,0 c 0,1.327 -1.077,2.211 -2.308,2.211 l -1.115,0 c -0.5,0 -0.827,-0.307 -0.827,-0.788 l 0,-4.115 c 0,-0.5 0.212,-0.808 0.827,-0.808 l 1.154,0 C -0.923,-3.5 0,-2.365 0,-1.077 L 0,0 z m -2.365,-4.808 -1.115,0 c -0.52,0 -0.77,-0.307 -0.77,-0.711 l 0,-3.5 c 0,-0.231 -0.057,-0.346 -0.269,-0.346 l -0.981,0 c -0.173,0 -0.211,0.153 -0.211,0.326 l 0,12.289 c 0,0.154 0.134,0.269 0.327,0.269 l 3.153,0 c 2,0 3.674,-1.461 3.674,-3.5 l 0,-1.077 c 0,-2.077 -1.712,-3.75 -3.808,-3.75" style="fill:#050301;fill-opacity:1;fill-rule:nonzero;stroke:none" id="path5732"/>
        </g>
        <g id="g5734" transform="translate(82.7341,707.34061)">
          <path d="m 0,0 c -0.327,0.827 -0.981,0.75 -1.27,0 l -1.173,-2.942 c -0.134,-0.308 0.174,-0.77 0.52,-0.77 l 2.596,0 c 0.365,0 0.615,0.462 0.481,0.808 L 0,0 z m 5.134,-9.096 -1.038,0 c -0.327,0 -0.461,0.077 -0.596,0.404 l -1.154,2.884 c -0.173,0.424 -0.462,0.635 -0.885,0.635 l -4.154,0 c -0.403,0 -0.711,-0.173 -0.865,-0.558 L -4.73,-8.692 C -4.866,-9 -4.98,-9.096 -5.346,-9.096 l -1.135,0 c -0.173,0 -0.135,0.115 -0.076,0.25 L -1.539,3.385 C -1.404,3.692 -1.231,3.789 -1,3.789 l 0.73,0 c 0.251,0 0.443,-0.097 0.558,-0.404 L 5.327,-8.846 C 5.384,-9 5.307,-9.096 5.134,-9.096" style="fill:#050301;fill-opacity:1;fill-rule:nonzero;stroke:none" id="path5736"/>
        </g>
        <g id="g5738" transform="translate(94.791901,707.60989)">
          <path d="m 0,0 c 0,1.327 -1.058,2.211 -2.308,2.211 l -1.25,0 c -0.5,0 -0.827,-0.307 -0.827,-0.788 l 0,-3.461 c 0,-0.539 0.25,-0.808 0.827,-0.808 l 1.289,0 C -0.962,-2.846 0,-1.731 0,-0.443 L 0,0 z m 0.365,-3.038 c -0.384,-0.366 -0.327,-0.847 0,-1.097 0.5,-0.384 0.924,-1.461 0.924,-2.423 l 0,-2.557 c 0,-0.154 -0.135,-0.25 -0.327,-0.25 l -0.847,0 c -0.173,0 -0.288,0.134 -0.288,0.269 l 0,2.519 c 0,1.5 -0.731,2.404 -1.827,2.404 l -1.558,0 c -0.5,0 -0.827,-0.269 -0.827,-0.827 l 0,-4.019 c 0,-0.231 -0.057,-0.346 -0.269,-0.346 l -0.981,0 c -0.173,0 -0.211,0.153 -0.211,0.326 l 0,12.289 c 0,0.154 0.134,0.269 0.327,0.269 l 3.308,0 c 1.98,0 3.673,-1.461 3.673,-3.5 l 0,-0.442 c 0,-1 -0.423,-1.942 -1.097,-2.615" style="fill:#050301;fill-opacity:1;fill-rule:nonzero;stroke:none" id="path5740"/>
        </g>
        <g id="g5742" transform="translate(99.426804,698.2444)">
          <path d="m 0,0 -0.846,0 c -0.173,0 -0.289,0.134 -0.289,0.27 l 0,12.288 c 0,0.212 0.059,0.327 0.27,0.327 l 0.961,0 c 0.193,0 0.231,-0.154 0.231,-0.327 l 0,-12.308 C 0.327,0.096 0.192,0 0,0" style="fill:#050301;fill-opacity:1;fill-rule:nonzero;stroke:none" id="path5744"/>
        </g>
        <g id="g5746" transform="translate(104.71561,697.9944)">
          <path d="m 0,0 c -1.52,0 -2.807,0.77 -3.308,1.769 -0.057,0.096 -0.038,0.212 0.058,0.269 l 0.98,0.654 C -2.174,2.769 -2.078,2.75 -2,2.635 -1.654,2.077 -1.057,1.481 0,1.481 c 1.134,0 2.134,0.75 2.134,1.923 0,1.423 -1.038,2.135 -1.961,2.539 -2.077,0.942 -3.365,2.038 -3.365,3.942 0,1.923 1.596,3.403 3.634,3.403 1.346,0 2.578,-0.768 3.019,-1.75 C 3.5,11.443 3.52,11.269 3.423,11.212 L 2.384,10.634 c -0.096,-0.057 -0.172,-0.018 -0.231,0.077 -0.307,0.597 -0.827,1.058 -1.788,1.058 -1.115,0 -1.943,-0.788 -1.943,-1.865 0,-1.077 0.636,-1.808 1.847,-2.269 C 1.827,7.058 3.75,5.866 3.75,3.481 3.75,1.27 1.75,0 0,0" style="fill:#050301;fill-opacity:1;fill-rule:nonzero;stroke:none" id="path5748"/>
        </g>
        <g id="g5750" transform="translate(120.98531,706.9561)">
          <path d="m 0,0 c 0,1.308 -1.154,2.732 -2.615,2.732 l -1.847,0 c -0.518,0 -0.827,-0.482 -0.827,-0.867 l 0,-8.154 c 0,-0.634 0.346,-0.961 0.827,-0.961 l 1.769,0 C -1.25,-7.25 0,-5.923 0,-4.692 L 0,0 z m -2.75,-8.712 -3.788,0 c -0.174,0 -0.213,0.154 -0.213,0.327 l 0,12.25 c 0,0.174 0.135,0.308 0.308,0.308 l 3.808,0 c 2.231,0 4.096,-1.962 4.096,-4.019 l 0,-4.981 c 0,-2.096 -1.961,-3.885 -4.211,-3.885" style="fill:#050301;fill-opacity:1;fill-rule:nonzero;stroke:none" id="path5752"/>
        </g>
        <g id="g5754" transform="translate(131.6002,698.2444)">
          <path d="m 0,0 -6.865,0 c -0.173,0 -0.212,0.154 -0.212,0.327 l 0,12.25 c 0,0.174 0.135,0.308 0.307,0.308 l 6.77,0 c 0.135,0 0.27,-0.115 0.27,-0.269 l 0,-0.865 C 0.27,11.558 0.154,11.443 0,11.443 l -4.788,0 c -0.519,0 -0.828,-0.481 -0.828,-0.866 l 0,-2.308 c 0,-0.481 0.386,-0.884 0.866,-0.884 l 4.096,0 c 0.154,0 0.25,-0.116 0.25,-0.308 l 0,-0.846 c 0,-0.174 -0.154,-0.288 -0.269,-0.288 l -4.057,0 c -0.482,0 -0.886,-0.424 -0.886,-0.904 l 0,-2.616 c 0,-0.635 0.346,-0.962 0.828,-0.962 l 4.788,0 c 0.154,0 0.27,-0.134 0.27,-0.326 l 0,-0.847 C 0.27,0.116 0.135,0 0,0" style="fill:#050301;fill-opacity:1;fill-rule:nonzero;stroke:none" id="path5756"/>
        </g>
        <g id="g5758" transform="translate(136.2357,697.9944)">
          <path d="m 0,0 c -1.519,0 -2.808,0.77 -3.308,1.769 -0.058,0.096 -0.039,0.212 0.058,0.269 l 0.981,0.654 C -2.173,2.769 -2.076,2.75 -2,2.635 -1.654,2.077 -1.058,1.481 0,1.481 c 1.135,0 2.135,0.75 2.135,1.923 0,1.423 -1.039,2.135 -1.961,2.539 -2.078,0.942 -3.366,2.038 -3.366,3.942 0,1.923 1.595,3.403 3.634,3.403 1.347,0 2.577,-0.768 3.019,-1.75 C 3.5,11.443 3.519,11.269 3.423,11.212 L 2.385,10.634 c -0.096,-0.057 -0.174,-0.018 -0.231,0.077 -0.308,0.597 -0.826,1.058 -1.789,1.058 -1.115,0 -1.941,-0.788 -1.941,-1.865 0,-1.077 0.633,-1.808 1.845,-2.269 C 1.826,7.058 3.75,5.866 3.75,3.481 3.75,1.27 1.75,0 0,0" style="fill:#050301;fill-opacity:1;fill-rule:nonzero;stroke:none" id="path5760"/>
        </g>
        <g id="g5762" transform="translate(146.2742,697.9944)">
          <path d="m 0,0 c -2.712,0 -4.712,1.981 -4.712,4.731 l 0,3.846 c 0,2.654 2.019,4.711 4.712,4.711 1.154,0 2.191,-0.383 2.999,-1.096 0.039,-0.038 0.077,-0.154 0.02,-0.211 L 2.326,11.134 c -0.077,-0.095 -0.153,-0.077 -0.25,0 -0.577,0.443 -1.289,0.732 -2.076,0.732 -1.904,0 -3.289,-1.385 -3.289,-3.289 l 0,-3.846 c 0,-1.943 1.365,-3.308 3.289,-3.308 0.961,0 1.845,0.442 2.423,1.096 0.076,0.058 0.153,0.077 0.23,0.019 L 3.519,1.769 C 3.576,1.711 3.576,1.654 3.538,1.596 2.712,0.635 1.441,0 0,0" style="fill:#050301;fill-opacity:1;fill-rule:nonzero;stroke:none" id="path5764"/>
        </g>
        <g id="g5766" transform="translate(156.67751,707.34061)">
          <path d="m 0,0 c -0.326,0.827 -0.98,0.75 -1.269,0 l -1.172,-2.942 c -0.135,-0.308 0.172,-0.77 0.518,-0.77 l 2.597,0 c 0.365,0 0.615,0.462 0.48,0.808 L 0,0 z m 5.134,-9.096 -1.037,0 c -0.327,0 -0.462,0.077 -0.596,0.404 l -1.154,2.884 c -0.174,0.424 -0.462,0.635 -0.885,0.635 l -4.153,0 c -0.404,0 -0.713,-0.173 -0.867,-0.558 L -4.73,-8.692 C -4.865,-9 -4.98,-9.096 -5.345,-9.096 l -1.136,0 c -0.172,0 -0.134,0.115 -0.076,0.25 l 5.02,12.231 C -1.404,3.692 -1.23,3.789 -1,3.789 l 0.731,0 c 0.25,0 0.443,-0.097 0.558,-0.404 L 5.327,-8.846 C 5.384,-9 5.308,-9.096 5.134,-9.096" style="fill:#050301;fill-opacity:1;fill-rule:nonzero;stroke:none" id="path5768"/>
        </g>
        <g id="g5770" transform="translate(168.7366,707.60989)">
          <path d="m 0,0 c 0,1.327 -1.058,2.211 -2.308,2.211 l -1.25,0 c -0.5,0 -0.826,-0.307 -0.826,-0.788 l 0,-3.461 c 0,-0.539 0.25,-0.808 0.826,-0.808 l 1.289,0 C -0.962,-2.846 0,-1.731 0,-0.443 L 0,0 z m 0.365,-3.038 c -0.384,-0.366 -0.327,-0.847 0,-1.097 0.5,-0.384 0.924,-1.461 0.924,-2.423 l 0,-2.557 c 0,-0.154 -0.135,-0.25 -0.328,-0.25 l -0.846,0 c -0.173,0 -0.288,0.134 -0.288,0.269 l 0,2.519 c 0,1.5 -0.731,2.404 -1.827,2.404 l -1.558,0 c -0.5,0 -0.826,-0.269 -0.826,-0.827 l 0,-4.019 c 0,-0.231 -0.058,-0.346 -0.27,-0.346 l -0.98,0 c -0.174,0 -0.212,0.153 -0.212,0.326 l 0,12.289 c 0,0.154 0.134,0.269 0.326,0.269 l 3.308,0 c 1.981,0 3.673,-1.461 3.673,-3.5 l 0,-0.442 c 0,-1 -0.422,-1.942 -1.096,-2.615" style="fill:#050301;fill-opacity:1;fill-rule:nonzero;stroke:none" id="path5772"/>
        </g>
        <g id="g5774" transform="translate(180.56419,709.68761)">
          <path d="m 0,0 -3.078,0 c -0.519,0 -0.827,-0.481 -0.827,-0.866 l 0,-10.25 c 0,-0.173 -0.038,-0.327 -0.211,-0.327 l -0.981,0 c -0.211,0 -0.269,0.115 -0.269,0.346 l 0,10.231 C -5.366,-0.481 -5.673,0 -6.193,0 L -9.27,0 c -0.154,0 -0.269,0.115 -0.269,0.308 l 0,0.865 c 0,0.153 0.134,0.269 0.269,0.269 l 9.27,0 c 0.115,0 0.269,-0.116 0.269,-0.269 l 0,-0.865 C 0.269,0.115 0.153,0 0,0" style="fill:#050301;fill-opacity:1;fill-rule:nonzero;stroke:none" id="path5776"/>
        </g>
        <g id="g5778" transform="translate(188.9109,698.2444)">
          <path d="m 0,0 -6.866,0 c -0.172,0 -0.211,0.154 -0.211,0.327 l 0,12.25 c 0,0.174 0.134,0.308 0.308,0.308 l 6.769,0 c 0.134,0 0.269,-0.115 0.269,-0.269 l 0,-0.865 C 0.269,11.558 0.154,11.443 0,11.443 l -4.789,0 c -0.519,0 -0.827,-0.481 -0.827,-0.866 l 0,-2.308 c 0,-0.481 0.386,-0.884 0.866,-0.884 l 4.096,0 c 0.154,0 0.25,-0.116 0.25,-0.308 l 0,-0.846 c 0,-0.174 -0.154,-0.288 -0.27,-0.288 l -4.058,0 c -0.48,0 -0.884,-0.424 -0.884,-0.904 l 0,-2.616 c 0,-0.635 0.347,-0.962 0.827,-0.962 l 4.789,0 c 0.154,0 0.269,-0.134 0.269,-0.326 l 0,-0.847 C 0.269,0.116 0.134,0 0,0" style="fill:#050301;fill-opacity:1;fill-rule:nonzero;stroke:none" id="path5780"/>
        </g>
        <g id="g5782" transform="translate(193.5452,697.9944)">
          <path d="m 0,0 c -1.519,0 -2.808,0.77 -3.308,1.769 -0.057,0.096 -0.038,0.212 0.058,0.269 l 0.981,0.654 C -2.173,2.769 -2.076,2.75 -2,2.635 -1.654,2.077 -1.058,1.481 0,1.481 c 1.135,0 2.135,0.75 2.135,1.923 0,1.423 -1.039,2.135 -1.961,2.539 -2.078,0.942 -3.365,2.038 -3.365,3.942 0,1.923 1.595,3.403 3.633,3.403 1.347,0 2.578,-0.768 3.02,-1.75 C 3.5,11.443 3.52,11.269 3.423,11.212 L 2.385,10.634 c -0.096,-0.057 -0.173,-0.018 -0.231,0.077 -0.308,0.597 -0.826,1.058 -1.789,1.058 -1.115,0 -1.941,-0.788 -1.941,-1.865 0,-1.077 0.634,-1.808 1.845,-2.269 C 1.826,7.058 3.75,5.866 3.75,3.481 3.75,1.27 1.75,0 0,0" style="fill:#050301;fill-opacity:1;fill-rule:nonzero;stroke:none" id="path5784"/>
        </g>
      </g>
    </g>
  </g>
</svg>